<?xml version="1.0" encoding="utf-8"?>
<!-- Generator: Adobe Illustrator 23.0.5, SVG Export Plug-In . SVG Version: 6.00 Build 0)  -->
<svg version="1.1" id="Layer_1" xmlns="http://www.w3.org/2000/svg" xmlns:xlink="http://www.w3.org/1999/xlink" x="0px" y="0px"
	 viewBox="0 0 50 50" style="enable-background:new 0 0 50 50;" xml:space="preserve">
<style type="text/css">
	.st0{fill-rule:evenodd;clip-rule:evenodd;fill:#FF9900;}
	.st1{fill-rule:evenodd;clip-rule:evenodd;fill:#014479;}
	.st2{fill-rule:evenodd;clip-rule:evenodd;fill:#FFFFFF;}
	.st3{fill:none;}
	.st4{fill:#A7A7A7;}
	.st5{fill:#363636;}
	.st6{fill:#FFFFFF;}
	.st7{fill:#014479;}
	.st8{fill-rule:evenodd;clip-rule:evenodd;}
	.st9{fill:#FF9900;}
</style>
<g>
	<path class="st9" d="M1,38c0.2-0.7,0.4-1.4,0.7-2c0.8-2,2.1-3.4,3.9-4.5c0.2-0.1,0.4-0.2,0.6-0.4c0,0,0-0.1,0-0.1
		c-3.2-3.3-3.4-7-0.6-9.7c2.5-2.4,6.5-2.4,9,0.1c2.1,2.2,2.9,6.4-0.8,9.5c0.1,0.4,0.5,0.4,0.7,0.5c2.9,1.8,4.4,4.3,4.5,7.7
		c0,1,0,2.1,0,3.1c0,0.8-0.4,1.1-1.2,1.1c-5.3,0-10.5,0-15.8,0c-0.5,0-0.8-0.3-1.1-0.6C1,41.2,1,39.6,1,38z M17,41.5
		c0.4-3.4-0.2-6.3-3.3-8.2c-2.5-1.6-5.2-1.6-7.7,0.1c-3,1.9-3.5,4.9-3.2,8.2C7.6,41.5,12.3,41.5,17,41.5z M10,30.2
		c2.5,0,4.5-2.1,4.4-4.5c0-2.4-2.1-4.4-4.5-4.4c-2.5,0-4.5,2.1-4.4,4.5C5.6,28.3,7.6,30.2,10,30.2z"/>
	<path class="st9" d="M36.3,30.9c-3.5-2.9-3-7.1-0.9-9.4c2.4-2.6,6.4-2.8,8.9-0.4c2.9,2.7,2.7,6.3-0.5,9.9c0,0.1,0.1,0.1,0.1,0.2
		c3.7,2,5.3,5.1,5.2,9.2c0,0.6,0,1.3,0,1.9c0,0.8-0.3,1.2-1.1,1.2c-5.3,0-10.5,0-15.8,0c-0.6,0-1.1-0.2-1.1-0.9
		c0-1.8-0.2-3.7,0.3-5.5c0.7-2.6,2.3-4.5,4.6-5.8c0.1-0.1,0.2-0.1,0.3-0.2C36.2,31.1,36.2,31,36.3,30.9z M47.1,41.5
		c0.4-3.6-0.4-6.7-3.7-8.5c-2.6-1.4-5.3-1.2-7.7,0.6c-2.7,2-3.1,4.8-2.7,7.9C37.7,41.5,42.4,41.5,47.1,41.5z M40,30.2
		c2.4,0,4.5-2,4.5-4.5c0-2.4-2-4.4-4.5-4.4c-2.5,0-4.5,2-4.5,4.5C35.6,28.2,37.6,30.2,40,30.2z"/>
	<path class="st9" d="M19.8,21.8c-0.5,0-0.8,0-1.1,0c-1.5-0.1-2.8-1.3-2.8-2.9c0-3.2,0-6.3,0-9.5c0-1.6,1.3-2.9,2.9-2.9
		c4.1,0,8.3,0,12.4,0c1.6,0,2.9,1.3,2.9,2.9c0,3.2,0,6.3,0,9.5c0,1.6-1.3,2.8-3,2.9c-1.8,0-3.6,0-5.4,0c-0.5,0-0.9,0.1-1.2,0.5
		c-0.9,0.9-1.8,1.8-2.7,2.7c-0.3,0.3-0.7,0.6-1.2,0.4c-0.5-0.2-0.6-0.7-0.6-1.2C19.8,23.5,19.8,22.8,19.8,21.8z M21.8,22.4
		c0.6-0.6,1-1.1,1.4-1.6c0.6-0.7,1.3-0.9,2.1-0.9c1.8,0.1,3.6,0,5.3,0c1.1,0,1.5-0.4,1.5-1.5c0-2.8,0-5.7,0-8.5
		c0-1.1-0.4-1.5-1.5-1.5c-3.8,0-7.6,0-11.4,0c-1.1,0-1.5,0.4-1.5,1.5c0,2.8,0,5.6,0,8.4c0,1.2,0.4,1.5,1.5,1.5
		C21.4,20,21.4,20,21.8,22.4z"/>
	<path class="st9" d="M20.2,32.1c-0.6-0.1-0.9-0.4-0.9-1c0-0.5,0.4-0.9,0.9-0.9c0.6,0,0.9,0.4,0.9,1C21.1,31.8,20.7,32,20.2,32.1z"
		/>
	<path class="st9" d="M25.9,31.2c-0.1,0.6-0.4,1-1,0.9c-0.6,0-0.9-0.4-0.9-1c0.1-0.5,0.4-0.8,0.9-0.8C25.6,30.3,25.9,30.7,25.9,31.2
		z"/>
	<path class="st9" d="M30.7,31.2c-0.1,0.6-0.4,1-1,0.9c-0.5,0-0.9-0.4-0.8-0.9c0-0.6,0.4-0.9,1-0.9C30.4,30.3,30.7,30.7,30.7,31.2z"
		/>
</g>
</svg>
