<?xml version="1.0" encoding="utf-8"?>
<!-- Generator: Adobe Illustrator 23.0.5, SVG Export Plug-In . SVG Version: 6.00 Build 0)  -->
<svg version="1.1" id="Layer_1" xmlns="http://www.w3.org/2000/svg" xmlns:xlink="http://www.w3.org/1999/xlink" x="0px" y="0px"
	 viewBox="0 0 50 50" style="enable-background:new 0 0 50 50;" xml:space="preserve">
<style type="text/css">
	.st0{fill-rule:evenodd;clip-rule:evenodd;fill:#FF9900;}
	.st1{fill-rule:evenodd;clip-rule:evenodd;fill:#014479;}
	.st2{fill-rule:evenodd;clip-rule:evenodd;fill:#FFFFFF;}
	.st3{fill:none;}
	.st4{fill:#A7A7A7;}
	.st5{fill:#363636;}
	.st6{fill:#FFFFFF;}
	.st7{fill:#014479;}
	.st8{fill-rule:evenodd;clip-rule:evenodd;}
	.st9{fill:#FF9900;}
</style>
<g>
	<path class="st9" d="M0,41.5c0.6-1.6,1.5-2.9,3.4-3.1c0.6-0.1,1.2,0,1.8,0.2c1.5,0.5,3.1,0.7,4.6,0c2-0.9,4.8,0.6,5.1,2.8
		c0.3,2.1,0.2,4.3,0.1,6.5c-0.1,1.2-1.2,2-2.4,2c-3.3,0-6.7,0-10,0c-1.2,0-1.9-0.9-2.5-1.7C0,45.9,0,43.7,0,41.5z M7.5,48.2
		c1.6,0,3.1,0,4.7,0c0.6,0,1.1-0.1,1.1-0.8c0-1.8,0.1-3.6-0.1-5.3c-0.1-1.6-1.5-2.3-3-1.8c-1.8,0.6-3.7,0.6-5.5,0
		c-1-0.3-1.9-0.1-2.4,0.8c-0.3,0.5-0.5,1.2-0.5,1.8c-0.1,1.4,0,2.8,0,4.2c0,0.9,0.4,1.3,1.3,1.3C4.5,48.2,6,48.2,7.5,48.2z"/>
	<path class="st9" d="M25.9,0c1.4,0.5,2.6,1.2,3.4,2.6c1.4,2.5,0.4,5.6-2.2,6.9c-2.5,1.2-5.6,0.1-6.7-2.5c-1.1-2.5,0.1-5.6,2.7-6.6
		C23.4,0.3,23.7,0.1,24,0C24.6,0,25.3,0,25.9,0z M21.6,5c0,1.8,1.5,3.3,3.3,3.3c1.8,0,3.3-1.5,3.3-3.4c0-1.8-1.5-3.3-3.3-3.3
		C23.1,1.7,21.6,3.2,21.6,5z"/>
	<path class="st9" d="M42.4,49.9c-1.6,0-3.1,0-4.7,0c-1.7,0-2.8-1-2.8-2.8c0-1.5,0-3.1,0-4.6c0.1-2.3,1.5-3.9,3.7-4.2
		c0.5-0.1,1.1,0.1,1.6,0.3c1.5,0.5,3,0.7,4.4,0c2.1-1,5.1,0.7,5.3,3.4c0.1,1.9,0.1,3.8,0,5.6c0,1.3-1.2,2.2-2.5,2.3
		C45.7,49.9,44,49.9,42.4,49.9z M42.4,48.2c1.6,0,3.1,0,4.7,0c0.6,0,1.1-0.1,1.1-0.8c0-1.9,0.1-3.8-0.1-5.6
		c-0.1-1.3-1.6-2.1-2.8-1.6c-1.9,0.7-3.8,0.7-5.7,0c-0.8-0.3-1.5-0.2-1.9,0.4c-0.5,0.6-0.9,1.4-0.9,2.1c-0.1,1.4,0,2.9-0.1,4.4
		c0,0.9,0.4,1.2,1.2,1.2C39.3,48.2,40.8,48.2,42.4,48.2z"/>
	<path class="st9" d="M24.9,22.4c-1.6,0-3.1,0-4.7,0c-1.7,0-2.7-1-2.7-2.6c0-1.7-0.1-3.4,0-5.1c0.2-2.8,2.7-4.5,5.3-3.5
		c1.4,0.5,2.8,0.5,4.2,0c2.6-0.9,5.2,0.7,5.3,3.5c0.1,1.8,0.1,3.6,0,5.4c0,1.4-1.1,2.4-2.5,2.4C28.2,22.4,26.5,22.4,24.9,22.4z
		 M24.9,20.8c1.6,0,3.1,0,4.7,0c0.6,0,1.1-0.1,1.2-0.8c0-1.9,0.1-3.8-0.2-5.7c-0.2-1.4-1.5-2-2.9-1.5c-1.9,0.6-3.8,0.7-5.6-0.1
		c-0.7-0.3-1.3-0.2-1.8,0.2c-0.9,0.6-1.1,1.5-1.1,2.4c0,1.4,0,2.7,0,4.1c0,1.1,0.3,1.3,1.4,1.3C22,20.8,23.4,20.8,24.9,20.8z"/>
	<path class="st9" d="M15.5,7.4c-0.6-0.3-1.2-0.5-1.6-0.8c-0.3-0.2-0.5-0.8-0.4-1c0.1-0.2,0.7-0.5,1-0.4c1.1,0.4,2.3,1,3.4,1.5
		c0.5,0.3,0.5,0.8,0.3,1.3c-0.5,1-0.9,2-1.4,3c-0.2,0.5-0.6,0.9-1.2,0.6c-0.6-0.3-0.5-0.8-0.3-1.3c0.1-0.2,0.2-0.5,0.3-0.9
		c-3,1.8-5.1,4.1-6.7,7c-1.4,2.6-2,5.3-2.2,8.2c0,0.6-0.1,1.3-0.9,1.2C5,25.7,5,25,5,24.5C5.4,17.3,8.5,11.8,14.5,8
		C14.8,7.8,15,7.6,15.5,7.4z"/>
	<path class="st9" d="M43.1,22.7c-1-6.1-4-10.7-9.3-13.7c-0.5-0.3-1.2-0.5-1.6-0.9c-0.3-0.2-0.3-0.7-0.5-1.1
		c0.4-0.1,0.9-0.5,1.2-0.3c2.6,1.1,4.8,2.7,6.7,4.7c2.8,3.1,4.5,6.6,5,10.7c0,0.2,0.1,0.4,0.2,0.8c0.4-0.4,0.7-0.8,1.1-1
		c0.3-0.2,0.7-0.1,1.1-0.1c0,0.4,0.2,1,0,1.2c-0.7,0.9-1.5,1.7-2.4,2.4c-0.3,0.2-1,0.2-1.2,0c-0.8-0.7-1.5-1.5-2.3-2.2
		c-0.4-0.4-0.6-0.8-0.1-1.3c0.4-0.4,0.9-0.3,1.3,0.1C42.5,22.2,42.7,22.4,43.1,22.7z"/>
	<path class="st9" d="M2.5,32.4c0-2.7,2.2-5,4.9-5c2.8,0,5,2.3,5,5c0,2.7-2.3,4.9-5,4.9C4.7,37.4,2.5,35.1,2.5,32.4z M10.8,32.4
		c0-1.8-1.5-3.4-3.3-3.3c-1.8,0-3.3,1.5-3.3,3.3c0,1.8,1.5,3.3,3.4,3.3C9.3,35.7,10.8,34.3,10.8,32.4z"/>
	<path class="st9" d="M42.4,27.5c2.7,0,4.9,2.2,4.9,5c0,2.8-2.3,5-5,5c-2.7,0-4.9-2.3-4.9-5C37.4,29.7,39.7,27.4,42.4,27.5z
		 M42.4,35.7c1.8,0,3.4-1.5,3.3-3.3c0-1.8-1.5-3.3-3.3-3.3c-1.8,0-3.3,1.5-3.3,3.4C39.1,34.3,40.6,35.7,42.4,35.7z"/>
	<path class="st9" d="M19.4,44.4c0.1,0.2,0.4,0.5,0.4,0.9c0,0.4-0.2,0.8-0.4,1.2c-0.4-0.1-0.9-0.2-1-0.4c-0.6-1-1.1-2-1.6-3
		c-0.3-0.7-0.1-1.1,0.6-1.3c0.9-0.3,1.9-0.5,2.8-0.8c0.6-0.2,1.1-0.2,1.3,0.4c0.3,0.6-0.2,0.9-0.7,1.2c-0.1,0-0.2,0.1-0.3,0.2
		c3.6,0.9,7.1,0.7,10.5-0.4c0.3-0.1,0.7-0.2,1-0.4c0.6-0.2,1.1-0.1,1.1,0.5c0,0.3-0.4,1-0.7,1.1c-2,0.5-3.9,1.2-5.9,1.4
		C24.2,44.9,21.8,44.5,19.4,44.4z"/>
</g>
</svg>
